<svg xmlns="http://www.w3.org/2000/svg"
                     width="40.0"
                     height="130.0"
                     viewBox="-21.0 -30.0 40.0 130.0">
    <line x1="7" y1="29" x2="12" y2="32" stroke="black" stroke-width="1" fill="none"/>
<line x1="8" y1="32" x2="12" y2="29" stroke="black" stroke-width="1" fill="none"/>
<ellipse cx="10.0" cy="53.0" rx="5.1" ry="5.1" stroke="black" stroke-width="1" fill="none"/>
<polyline points="10,90 10,44 2,33" stroke="black" stroke-width="1" fill="none"/>
<polyline points="1.7,-8 10,6 10,31" stroke="black" stroke-width="1" fill="none"/>
<line x1="-10.8" y1="-5" x2="-10.8" y2="-1" stroke="black" stroke-width="1" fill="none"/>
<line x1="-12.8" y1="-3" x2="-11.8" y2="-3" stroke="black" stroke-width="1" fill="none"/>
<line x1="-13.8" y1="-7" x2="-13.8" y2="1" stroke="black" stroke-width="1" fill="none"/>
<line x1="-17.8" y1="-3" x2="-17.8" y2="-2" stroke="black" stroke-width="1" fill="none"/>
<line x1="-15.8" y1="-5" x2="-15.8" y2="-1" stroke="black" stroke-width="1" fill="none"/>
<line x1="7.7" y1="-10" x2="11.7" y2="-10" stroke="black" stroke-width="1" fill="none"/>
<line x1="9.7" y1="77" x2="4.7" y2="77" stroke="black" stroke-width="1" fill="none"/>
<line x1="4.7" y1="72" x2="4.7" y2="82" stroke="black" stroke-width="1" fill="none"/>
<line x1="2.95" y1="72" x2="2.95" y2="82" stroke="black" stroke-width="1" fill="none"/>
<line x1="-0.3" y1="77" x2="2.7" y2="77" stroke="black" stroke-width="1" fill="none"/>
<!-- arc: x=-10.3 y=72.0 start=270.0 span=180.0 -->
<line x1="9.7" y1="-20" x2="9.7" y2="-10" stroke="black" stroke-width="1" fill="none"/>
</svg>